<?xml version="1.0" encoding="utf-8"?>
<!-- Generator: Adobe Illustrator 16.0.4, SVG Export Plug-In . SVG Version: 6.00 Build 0)  -->
<!DOCTYPE svg PUBLIC "-//W3C//DTD SVG 1.1//EN" "http://www.w3.org/Graphics/SVG/1.1/DTD/svg11.dtd">
<svg version="1.1"
	 id="Layer_1" xmlns:dc="http://purl.org/dc/elements/1.1/" xmlns:cc="http://web.resource.org/cc/" xmlns:rdf="http://www.w3.org/1999/02/22-rdf-syntax-ns#" xmlns:svg="http://www.w3.org/2000/svg" xmlns:sodipodi="http://sodipodi.sourceforge.net/DTD/sodipodi-0.dtd" xmlns:inkscape="http://www.inkscape.org/namespaces/inkscape" sodipodi:version="0.32" inkscape:version="0.45" sodipodi:docname="I-4.svg" sodipodi:docbase="C:\Documents and Settings\ltljltlj\Desktop\Signs\Interstate Shields" inkscape:output_extension="org.inkscape.output.svg.inkscape" sodipodi:modified="true"
	 xmlns="http://www.w3.org/2000/svg" xmlns:xlink="http://www.w3.org/1999/xlink" x="0px" y="0px" width="601px" height="601px"
	 viewBox="0 0 601 601" enable-background="new 0 0 601 601" xml:space="preserve">
<g>
	<path fill="#990000" d="M519.963,0.5C485.287,11.083,448.478,30,410.339,30S335.392,11.083,300.716,0.5
		C266.04,11.083,229.231,30,191.093,30c-38.14,0-74.948-18.917-109.624-29.5C30.903,64.408,0.716,145.178,0.716,233
		c0,181.424,128.83,332.754,300,367.499c171.17-34.745,300-186.075,300-367.499C600.716,145.178,570.528,64.408,519.963,0.5z
		 M466.305,51.93L434.925,135h-12.854l31.265-83.07H466.305z M381.072,66.008l2.678,0.896c0.893,0.299,1.936,0.767,3.125,1.4
		c1.189,0.635,2.361,1.344,3.514,2.128c1.154,0.784,2.27,1.568,3.35,2.352c1.078,0.784,2.027,1.512,2.846,2.184
		c-0.367-0.969-0.754-2.108-1.158-3.416c-0.404-1.305-0.791-2.632-1.158-3.976c-0.368-1.344-0.682-2.669-0.938-3.976
		c-0.257-1.306-0.386-2.445-0.386-3.416v-2.8h14.561v2.8c0,0.971-0.133,2.11-0.398,3.416c-0.267,1.307-0.588,2.632-0.967,3.976
		c-0.377,1.344-0.777,2.67-1.193,3.976c-0.416,1.308-0.815,2.447-1.193,3.416c0.749-0.672,1.686-1.4,2.809-2.184
		c1.123-0.784,2.267-1.568,3.428-2.352c1.162-0.784,2.342-1.493,3.543-2.128c1.199-0.634,2.246-1.101,3.146-1.4l2.698-0.896
		l4.479,13.888l-2.696,0.896c-0.974,0.299-2.097,0.523-3.37,0.672c-1.274,0.15-2.621,0.243-4.045,0.28
		c-1.424,0.039-2.811,0.056-4.158,0.056s-2.546,0-3.594,0c0.899,0.599,1.892,1.288,2.98,2.072c1.086,0.784,2.173,1.606,3.262,2.464
		c1.086,0.859,2.117,1.736,3.092,2.632s1.763,1.755,2.363,2.576l1.799,2.352l-11.872,8.4l-1.692-2.24
		c-0.602-0.746-1.187-1.717-1.75-2.912c-0.563-1.193-1.109-2.445-1.637-3.752c-0.526-1.306-0.979-2.594-1.354-3.864
		c-0.377-1.269-0.715-2.425-1.016-3.472c-0.297,1.046-0.63,2.203-1.001,3.472c-0.371,1.271-0.815,2.559-1.333,3.864
		c-0.519,1.307-1.056,2.559-1.612,3.752c-0.557,1.195-1.13,2.167-1.722,2.912l-1.668,2.24l-11.872-8.4l1.785-2.352
		c0.595-0.821,1.376-1.68,2.341-2.576c0.967-0.896,1.99-1.772,3.068-2.632c1.078-0.857,2.156-1.68,3.234-2.464
		c1.078-0.784,2.062-1.474,2.955-2.072c-1.043,0-2.232,0-3.573,0s-2.716-0.017-4.13-0.056c-1.414-0.037-2.754-0.13-4.02-0.28
		c-1.266-0.148-2.383-0.373-3.35-0.672l-2.68-0.896L381.072,66.008z M254.782,44.78l0.002,4.327c0-0.585,0.838-0.878,1.954-0.878
		c3.351,0,17.592,0.438,44.958,0.438c28.479,0,37.417-0.438,41.32-0.438c1.396,0,1.955,0.438,1.955,1.317v9.931
		c0,0.731-0.836,1.024-2.229,1.024h-8.102c-6.979,0-11.168,1.171-11.168,3.806c0,1.463-0.972,18.605-0.972,20.361l0.133,15.878
		c0,1.463,0.839,19.369,0.839,20.686c0,4.538,4.188,5.27,9.492,5.27h11.448c1.396,0,2.23,0.292,2.23,1.024v11.597
		c0,0.586-0.837,0.878-2.511,0.878c-3.35,0-14.521-0.439-41.045-0.439c-29.321,0-41.325,0.439-44.397,0.439
		c-1.396,0-2.233-0.292-2.233-1.171v-11.451c0-0.586,0.837-0.878,2.233-0.878h8.098c5.583,0,11.447-0.44,12.565-3.952
		c0.558-2.196,1.395-17.906,1.395-25.662V86.64c0-3.513-0.837-19.26-1.116-21.164c-0.559-3.513-3.351-4.977-9.215-4.977h-13.4
		c-1.397,0-2.235-0.293-2.235-0.878V44.78z M186.867,66.904c0.893,0.299,1.936,0.767,3.125,1.4c1.19,0.635,2.361,1.344,3.514,2.128
		c1.153,0.784,2.27,1.568,3.349,2.352c1.078,0.784,2.027,1.512,2.846,2.184c-0.368-0.969-0.754-2.108-1.159-3.416
		c-0.404-1.305-0.791-2.632-1.158-3.976c-0.368-1.344-0.681-2.669-0.938-3.976c-0.257-1.306-0.385-2.445-0.385-3.416v-2.8h14.56v2.8
		c0,0.971-0.133,2.11-0.399,3.416c-0.266,1.307-0.588,2.632-0.966,3.976c-0.378,1.344-0.777,2.67-1.194,3.976
		c-0.417,1.308-0.815,2.447-1.193,3.416c0.749-0.672,1.685-1.4,2.809-2.184c1.124-0.784,2.267-1.568,3.428-2.352
		c1.162-0.784,2.342-1.493,3.542-2.128c1.199-0.634,2.247-1.101,3.147-1.4l2.698-0.896l4.48,13.888l-2.697,0.896
		c-0.973,0.299-2.096,0.523-3.371,0.672c-1.274,0.15-2.621,0.243-4.044,0.28c-1.425,0.039-2.811,0.056-4.158,0.056s-2.546,0-3.594,0
		c0.899,0.599,1.892,1.288,2.98,2.072c1.087,0.784,2.173,1.606,3.262,2.464c1.086,0.859,2.117,1.736,3.092,2.632
		c0.975,0.896,1.762,1.755,2.362,2.576l1.799,2.352l-11.872,8.4l-1.692-2.24c-0.602-0.746-1.187-1.717-1.75-2.912
		c-0.563-1.193-1.109-2.445-1.636-3.752c-0.527-1.306-0.979-2.594-1.354-3.864c-0.376-1.269-0.714-2.425-1.015-3.472
		c-0.297,1.046-0.63,2.203-1.001,3.472c-0.371,1.271-0.815,2.559-1.333,3.864c-0.518,1.307-1.055,2.559-1.612,3.752
		c-0.557,1.195-1.13,2.167-1.722,2.912l-1.667,2.24l-11.872-8.4l1.785-2.352c0.595-0.821,1.375-1.68,2.341-2.576
		c0.966-0.896,1.99-1.772,3.068-2.632c1.078-0.857,2.156-1.68,3.234-2.464c1.078-0.784,2.063-1.474,2.956-2.072
		c-1.043,0-2.233,0-3.574,0s-2.716-0.017-4.13-0.056c-1.414-0.037-2.754-0.13-4.02-0.28c-1.265-0.148-2.382-0.373-3.349-0.672
		l-2.68-0.896l4.48-13.888L186.867,66.904z M169.113,51.93h12.968L150.701,135h-12.854L169.113,51.93z M300.716,561
		c-144.544-30.729-253-159.469-253-313.625c0-28.479,3.701-56.089,10.647-82.375H543.07c6.943,26.286,10.646,53.897,10.646,82.375
		C553.716,401.531,445.26,530.271,300.716,561z"/>
	<path fill="#990000" d="M482.994,287.113c-5.331-3.052-12.783-3.12-18.188-6.306c-10.602-6.288-13.189-15.222-13.396-28.396
		c-22.934-25.629-57.51-48.589-106.232-48.816c-13.221-0.064-25.646-0.875-36,4.28c-3.007,3.957-0.159,5.846,3.146,6.844
		c-3.319,1.516-7.896,1.543-7.265,7.797c30.989-3.771,84.838,8.72,80.265,35.267c-1.024,5.902-8.571,12.075-13.737,17.51
		c-16.289,17.165-33.529,29.795-48.088,45.396c-3.289-0.85-4.59,0.683-6.679,1.291c-41.36,32.135-88.614,73.621-129.869,111.196
		c-5.489,5.007-16.743,11.392-17.453,17.176c-1.106,8.838,10.484,16.833,16.68,23.033c6.196,6.203,13.464,18.378,22.346,17.615
		c5.822-0.472,12.663-11.479,17.875-16.761c39.207-39.712,82.586-85.25,116.365-125.28c0.655-2.058,2.261-3.301,1.525-6.608
		c16.186-13.927,29.493-30.649,47.295-46.211c5.641-4.951,12.114-12.254,18.055-13.053l10.816-0.931
		c13.125,0.759,21.943,3.7,27.805,14.54c2.969,5.519,2.747,12.992,5.577,18.431c1.916,3.719,10.38,14.057,14.701,14.255
		c3.354,0.151,6.891-2.146,10.327-5.387l11.981-11.521c3.381-3.285,5.809-6.714,5.786-10.076
		C496.612,298.072,486.636,289.174,482.994,287.113z"/>
</g>
</svg>
